Coordinates
version=1
nRows=9
nColumns=36
inDegrees=yes

Units are S.I. units (second, meters, Newtons, ...)
If the header above contains a line with 'inDegrees', this indicates whether rotational values are in degrees (yes) or radians (no).

endheader
time	pelvis_tilt	pelvis_list	pelvis_rotation	pelvis_tx	pelvis_ty	pelvis_tz	hip_flexion_r	hip_adduction_r	hip_rotation_r	knee_angle_r	knee_angle_r_beta	ankle_angle_r	subtalar_angle_r	mtp_angle_r	hip_flexion_l	hip_adduction_l	hip_rotation_l	knee_angle_l	knee_angle_l_beta	ankle_angle_l	subtalar_angle_l	mtp_angle_l	lumbar_extension	lumbar_bending	lumbar_rotation	arm_flex_r	arm_add_r	arm_rot_r	elbow_flex_r	pro_sup_r	arm_flex_l	arm_add_l	arm_rot_l	elbow_flex_l	pro_sup_l
      0.00000000	     12.20057678	     -3.46921533	      0.55707717	     -0.06569158	      1.12479355	     -0.23272887	     14.90481705	      6.35385163	     -2.42308718	     20.16619123	      0.35196643	     -6.12490157	     -9.53984538	     -6.45106413	    -27.93446539	     -0.69724894	     -2.78492500	     24.37135453	      0.42536038	      9.59933999	     -7.17577327	     -6.45106413	    -25.68682761	      6.63303875	     -1.27735314	     -6.36370310	    -12.01969480	      6.22518529	     27.67756450	     64.77186924	     -0.17175846	     -9.71138482	     -1.53876196	     34.81054898	     67.69487764
      0.01000000	     12.35867595	     -3.51420976	      0.79529290	     -0.05283356	      1.12519630	     -0.23127339	     14.34265628	      6.37388773	     -2.62721728	     20.82234312	      0.36341845	     -5.99730723	     -9.55594211	     -6.57242130	    -26.95249112	     -1.14650373	     -2.96081616	     27.24882884	      0.47558178	      6.24097340	     -8.54968326	     -6.57242130	    -25.65631487	      6.86134849	     -1.29858965	     -6.60851502	    -11.93068938	      5.93212718	     27.41818452	     64.32990794	     -0.38044236	     -9.44972373	     -1.63882722	     34.38513501	     67.27690664
      0.02000000	     12.36108091	     -3.63091046	      0.99515461	     -0.03968540	      1.12566573	     -0.22954879	     13.89624542	      6.53496986	     -2.66366433	     21.35919959	      0.37278836	     -5.89070668	     -9.83998720	     -6.69458135	    -25.63468094	     -1.73796945	     -3.32156880	     30.38741102	      0.53036037	      2.96677167	     -9.41228215	     -6.69458135	    -25.43218131	      7.16338563	     -1.38073158	     -6.97511550	    -11.98960663	      6.10029549	     27.68961918	     64.04184562	     -0.53489940	     -9.30855764	     -1.29943351	     33.50425451	     67.35956297
      0.03000000	     12.25263413	     -3.73031192	      1.29395235	     -0.02644136	      1.12660713	     -0.22792443	     13.51519223	      6.65232184	     -2.87412963	     21.79136716	      0.38033111	     -5.56784500	     -9.97082171	     -6.82388297	    -24.01952164	     -2.34800495	     -3.41685413	     33.72511256	      0.58861425	     -0.49728192	    -10.38688920	     -6.82388297	    -25.15883941	      7.44127207	     -1.30456172	     -7.58504068	    -11.95614228	      5.83499944	     28.28570405	     63.48694353	     -0.65608614	     -9.14254444	     -1.02466340	     32.94979177	     67.52319085
      0.04000000	     11.90073423	     -3.76722022	      1.58589961	     -0.01316634	      1.12809688	     -0.22617048	     13.37336296	      6.69298721	     -3.14942732	     22.20090401	      0.38747887	     -4.95392292	     -9.80071175	     -6.89880666	    -22.02100931	     -2.86080284	     -3.29075520	     37.15051199	      0.64839875	     -4.03624218	    -11.40027011	     -6.89880666	    -24.50862317	      7.64140957	     -1.49204998	     -7.84376043	    -11.77583247	      5.43881565	     28.09090926	     63.03425107	     -0.94066612	     -8.98997951	     -1.03838244	     32.32798209	     67.11994794
      0.05000000	     11.52504564	     -3.91064144	      1.88946675	     -0.00014005	      1.13032142	     -0.22424411	     13.13718845	      6.87240096	     -3.43045663	     22.33535776	      0.38982553	     -4.41630007	     -9.67811160	     -6.97206463	    -19.91295870	     -3.49639509	     -3.16892886	     40.61438474	      0.70885474	     -7.04643515	    -11.87815215	     -6.97206463	    -23.85971641	      7.94777269	     -1.57796453	     -8.25626520	    -11.72511151	      5.29510075	     28.33684035	     62.62138628	     -1.11601299	     -8.86261413	     -0.80909729	     31.55684461	     66.87105739
      0.06000000	     11.15729788	     -4.00233379	      2.24375958	      0.01238659	      1.13315928	     -0.22223876	     12.81182007	      7.00073993	     -3.73601027	     22.29005444	      0.38903484	     -3.86256912	     -9.63679098	     -7.04100804	    -17.74849139	     -4.06189856	     -2.88273074	     43.98901514	      0.76775315	     -9.60875856	    -12.13091919	     -7.04100804	    -23.29028593	      8.17046978	     -1.65578390	     -8.78537120	    -11.62015583	      4.86357087	     29.04572622	     62.13489803	     -1.32839421	     -8.79518822	     -0.57566361	     31.12353671	     66.51735586
      0.07000000	     10.81909593	     -4.05310038	      2.60303954	      0.02439950	      1.13637683	     -0.22018260	     12.36460276	      7.09418302	     -4.05596281	     22.03125025	      0.38451786	     -3.30406304	     -9.48353004	     -7.09026585	    -15.57971885	     -4.51585166	     -2.44564471	     47.20946268	      0.82396056	    -11.78628976	    -12.36156111	     -7.09026585	    -22.80963320	      8.36683471	     -1.88767920	     -9.19447731	    -11.50740642	      4.28382793	     29.84566409	     61.71359011	     -1.65101899	     -8.77089731	     -0.56044423	     30.97587115	     66.06808976
      0.08000000	     10.45015371	     -4.14119674	      2.92295828	      0.03610196	      1.13956167	     -0.21812829	     11.86850719	      7.25181982	     -4.30002749	     21.56682032	      0.37641202	     -2.81240312	     -9.34965963	     -7.15311414	    -13.35518426	     -4.96406694	     -2.01912950	     50.29518136	      0.87781651	    -13.21586736	    -12.33621648	     -7.15311414	    -22.26135031	      8.54272990	     -1.65543312	     -9.82447223	    -11.39523243	      3.68214069	     30.74773093	     61.23943253	     -1.50658728	     -8.77871254	      0.07013258	     30.09934328	     66.04455648
